# xmcd CD database file
#
# Track frame offsets:
#	187
#	13672
#	27992
#	47595
#	59830
#	71707
#	88090
#	101102
#	113900
#	131112
#	146477
#	160792
#
# Disc length: 2354 seconds
#
# Revision: 0
# Processed by: cddbd v1.5.1PL0 Copyright (c) Steve Scherf et al.
# Submitted via: CDex 1.51
#
DISCID=ae09300c
DTITLE=Teddy Wilson - For Quiet Lovers
DYEAR=1955
DGENRE=Jazz
TTITLE0=Blues fot the Oldest Profession
TTITLE1=It Had to be You
TTITLE2=You Took Advantage of Me
TTITLE3=Three Little Words
TTITLE4=If I Had You
TTITLE5=Who's Sorry Now
TTITLE6=The Birth of the Blues
TTITLE7=When Your Lover Has Gone
TTITLE8=Moonlight on the Ganges
TTITLE9=April in Paris
TTITLE10=Hallelujah
TTITLE11=Get Out of Town
EXTD=YEAR: 1955
EXTT0=
EXTT1=
EXTT2=
EXTT3=
EXTT4=
EXTT5=
EXTT6=
EXTT7=
EXTT8=
EXTT9=
EXTT10=
EXTT11=
PLAYORDER=
